<mxfile host="app.diagrams.net" modified="2022-04-28T13:41:29.587Z" agent="5.0 (Windows NT 10.0; Win64; x64) AppleWebKit/537.36 (KHTML, like Gecko) Chrome/101.0.4951.41 Safari/537.36" etag="n6H46qmaLDgzXCL09dBx" version="17.4.6" type="github">
  <diagram id="xmVIYVacunl-4-tS576l" name="Page-1">
    <mxGraphModel dx="1618" dy="1075" grid="1" gridSize="10" guides="1" tooltips="1" connect="1" arrows="1" fold="1" page="1" pageScale="1" pageWidth="1169" pageHeight="827" math="1" shadow="0">
      <root>
        <mxCell id="0" />
        <mxCell id="1" parent="0" />
        <mxCell id="sjQjkHuD0-8LFGBji4sX-5" style="edgeStyle=orthogonalEdgeStyle;rounded=0;orthogonalLoop=1;jettySize=auto;html=1;entryX=0.103;entryY=0.503;entryDx=0;entryDy=0;entryPerimeter=0;" parent="1" source="sjQjkHuD0-8LFGBji4sX-1" target="sjQjkHuD0-8LFGBji4sX-3" edge="1">
          <mxGeometry relative="1" as="geometry" />
        </mxCell>
        <mxCell id="sjQjkHuD0-8LFGBji4sX-1" value="" style="rounded=0;whiteSpace=wrap;html=1;rotation=90;" parent="1" vertex="1">
          <mxGeometry x="57" y="169" width="87.5" height="75" as="geometry" />
        </mxCell>
        <mxCell id="sjQjkHuD0-8LFGBji4sX-2" value="Milled&lt;br&gt;Palm Oil&lt;br&gt;Cake" style="text;html=1;align=center;verticalAlign=middle;resizable=0;points=[];autosize=1;strokeColor=none;fillColor=none;" parent="1" vertex="1">
          <mxGeometry x="70.75" y="181.5" width="60" height="50" as="geometry" />
        </mxCell>
        <mxCell id="sjQjkHuD0-8LFGBji4sX-13" style="edgeStyle=orthogonalEdgeStyle;rounded=0;orthogonalLoop=1;jettySize=auto;html=1;exitX=0.911;exitY=0.494;exitDx=0;exitDy=0;exitPerimeter=0;" parent="1" source="sjQjkHuD0-8LFGBji4sX-3" target="sjQjkHuD0-8LFGBji4sX-10" edge="1">
          <mxGeometry relative="1" as="geometry" />
        </mxCell>
        <mxCell id="sjQjkHuD0-8LFGBji4sX-3" value="" style="shape=mxgraph.pid.vessels.jacketed_mixing_vessel;html=1;pointerEvents=1;align=center;verticalLabelPosition=bottom;verticalAlign=top;dashed=0;" parent="1" vertex="1">
          <mxGeometry x="187" y="156.5" width="70" height="100" as="geometry" />
        </mxCell>
        <mxCell id="sjQjkHuD0-8LFGBji4sX-9" style="edgeStyle=orthogonalEdgeStyle;rounded=0;orthogonalLoop=1;jettySize=auto;html=1;" parent="1" source="sjQjkHuD0-8LFGBji4sX-8" target="sjQjkHuD0-8LFGBji4sX-3" edge="1">
          <mxGeometry relative="1" as="geometry" />
        </mxCell>
        <mxCell id="sjQjkHuD0-8LFGBji4sX-8" value="&lt;font style=&quot;font-size: 10px;&quot;&gt;NaOH&lt;/font&gt;" style="text;html=1;align=center;verticalAlign=middle;resizable=0;points=[];autosize=1;strokeColor=none;fillColor=none;fontSize=10;" parent="1" vertex="1">
          <mxGeometry x="202" y="89" width="40" height="20" as="geometry" />
        </mxCell>
        <mxCell id="sjQjkHuD0-8LFGBji4sX-14" style="edgeStyle=orthogonalEdgeStyle;rounded=0;orthogonalLoop=1;jettySize=auto;html=1;" parent="1" source="sjQjkHuD0-8LFGBji4sX-10" edge="1">
          <mxGeometry relative="1" as="geometry">
            <mxPoint x="313" y="269" as="targetPoint" />
          </mxGeometry>
        </mxCell>
        <mxCell id="sjQjkHuD0-8LFGBji4sX-19" style="edgeStyle=orthogonalEdgeStyle;rounded=0;orthogonalLoop=1;jettySize=auto;html=1;entryX=0.103;entryY=0.503;entryDx=0;entryDy=0;entryPerimeter=0;" parent="1" source="sjQjkHuD0-8LFGBji4sX-10" target="sjQjkHuD0-8LFGBji4sX-16" edge="1">
          <mxGeometry relative="1" as="geometry" />
        </mxCell>
        <mxCell id="sjQjkHuD0-8LFGBji4sX-10" value="" style="shape=mxgraph.pid.separators.gravity_separator,_settling_chamber;html=1;pointerEvents=1;align=center;verticalLabelPosition=bottom;verticalAlign=top;dashed=0;" parent="1" vertex="1">
          <mxGeometry x="298" y="186.5" width="30" height="40" as="geometry" />
        </mxCell>
        <mxCell id="sjQjkHuD0-8LFGBji4sX-21" style="edgeStyle=orthogonalEdgeStyle;rounded=0;orthogonalLoop=1;jettySize=auto;html=1;entryX=-0.006;entryY=0.507;entryDx=0;entryDy=0;entryPerimeter=0;exitX=0.917;exitY=0.498;exitDx=0;exitDy=0;exitPerimeter=0;" parent="1" source="sjQjkHuD0-8LFGBji4sX-16" target="sjQjkHuD0-8LFGBji4sX-20" edge="1">
          <mxGeometry relative="1" as="geometry" />
        </mxCell>
        <mxCell id="sjQjkHuD0-8LFGBji4sX-16" value="" style="shape=mxgraph.pid.vessels.jacketed_mixing_vessel;html=1;pointerEvents=1;align=center;verticalLabelPosition=bottom;verticalAlign=top;dashed=0;" parent="1" vertex="1">
          <mxGeometry x="369" y="156.5" width="70" height="100" as="geometry" />
        </mxCell>
        <mxCell id="sjQjkHuD0-8LFGBji4sX-22" style="edgeStyle=orthogonalEdgeStyle;rounded=0;orthogonalLoop=1;jettySize=auto;html=1;exitX=0.5;exitY=1;exitDx=0;exitDy=0;exitPerimeter=0;" parent="1" source="sjQjkHuD0-8LFGBji4sX-20" edge="1">
          <mxGeometry relative="1" as="geometry">
            <mxPoint x="490.04347826086973" y="269" as="targetPoint" />
          </mxGeometry>
        </mxCell>
        <mxCell id="sjQjkHuD0-8LFGBji4sX-28" style="edgeStyle=orthogonalEdgeStyle;rounded=0;orthogonalLoop=1;jettySize=auto;html=1;fontSize=10;entryX=0.104;entryY=0.499;entryDx=0;entryDy=0;entryPerimeter=0;" parent="1" source="sjQjkHuD0-8LFGBji4sX-20" target="sjQjkHuD0-8LFGBji4sX-27" edge="1">
          <mxGeometry relative="1" as="geometry" />
        </mxCell>
        <mxCell id="sjQjkHuD0-8LFGBji4sX-20" value="" style="shape=mxgraph.pid.separators.gravity_separator,_settling_chamber;html=1;pointerEvents=1;align=center;verticalLabelPosition=bottom;verticalAlign=top;dashed=0;" parent="1" vertex="1">
          <mxGeometry x="475" y="186.5" width="30" height="40" as="geometry" />
        </mxCell>
        <mxCell id="sjQjkHuD0-8LFGBji4sX-24" style="edgeStyle=orthogonalEdgeStyle;rounded=0;orthogonalLoop=1;jettySize=auto;html=1;entryX=0.507;entryY=-0.006;entryDx=0;entryDy=0;entryPerimeter=0;" parent="1" source="sjQjkHuD0-8LFGBji4sX-23" target="sjQjkHuD0-8LFGBji4sX-16" edge="1">
          <mxGeometry relative="1" as="geometry" />
        </mxCell>
        <mxCell id="sjQjkHuD0-8LFGBji4sX-23" value="&lt;font style=&quot;font-size: 10px;&quot;&gt;dil. `H_2SO_4`&lt;/font&gt;" style="text;html=1;align=center;verticalAlign=middle;resizable=0;points=[];autosize=1;strokeColor=none;fillColor=none;fontSize=10;" parent="1" vertex="1">
          <mxGeometry x="364" y="89" width="80" height="20" as="geometry" />
        </mxCell>
        <mxCell id="sjQjkHuD0-8LFGBji4sX-25" value="&lt;font style=&quot;font-size: 10px;&quot;&gt;Lignin&lt;/font&gt;" style="text;html=1;align=center;verticalAlign=middle;resizable=0;points=[];autosize=1;strokeColor=none;fillColor=none;fontSize=10;" parent="1" vertex="1">
          <mxGeometry x="293" y="269" width="40" height="20" as="geometry" />
        </mxCell>
        <mxCell id="sjQjkHuD0-8LFGBji4sX-26" value="&lt;font style=&quot;font-size: 10px;&quot;&gt;dissolved&lt;br style=&quot;font-size: 10px;&quot;&gt;hemicellulose&lt;/font&gt;" style="text;html=1;align=center;verticalAlign=middle;resizable=0;points=[];autosize=1;strokeColor=none;fillColor=none;fontSize=10;" parent="1" vertex="1">
          <mxGeometry x="450" y="264" width="80" height="30" as="geometry" />
        </mxCell>
        <mxCell id="sjQjkHuD0-8LFGBji4sX-38" style="edgeStyle=orthogonalEdgeStyle;rounded=0;orthogonalLoop=1;jettySize=auto;html=1;fontSize=10;exitX=0.916;exitY=0.504;exitDx=0;exitDy=0;exitPerimeter=0;" parent="1" source="sjQjkHuD0-8LFGBji4sX-27" target="sjQjkHuD0-8LFGBji4sX-37" edge="1">
          <mxGeometry relative="1" as="geometry" />
        </mxCell>
        <mxCell id="sjQjkHuD0-8LFGBji4sX-27" value="" style="shape=mxgraph.pid.vessels.jacketed_mixing_vessel;html=1;pointerEvents=1;align=center;verticalLabelPosition=bottom;verticalAlign=top;dashed=0;" parent="1" vertex="1">
          <mxGeometry x="549" y="156.5" width="70" height="100" as="geometry" />
        </mxCell>
        <mxCell id="sjQjkHuD0-8LFGBji4sX-29" value="&lt;b&gt;Enzymatic&lt;br&gt;Hydrolysis&lt;/b&gt;" style="text;html=1;align=center;verticalAlign=middle;resizable=0;points=[];autosize=1;strokeColor=none;fillColor=none;fontSize=10;" parent="1" vertex="1">
          <mxGeometry x="549" y="264" width="70" height="30" as="geometry" />
        </mxCell>
        <mxCell id="sjQjkHuD0-8LFGBji4sX-30" value="&lt;b&gt;Pretreatment-1&lt;/b&gt;" style="text;html=1;align=center;verticalAlign=middle;resizable=0;points=[];autosize=1;strokeColor=none;fillColor=none;fontSize=10;" parent="1" vertex="1">
          <mxGeometry x="177" y="269" width="90" height="20" as="geometry" />
        </mxCell>
        <mxCell id="sjQjkHuD0-8LFGBji4sX-31" value="&lt;b&gt;Pretreatment-2&lt;/b&gt;" style="text;html=1;align=center;verticalAlign=middle;resizable=0;points=[];autosize=1;strokeColor=none;fillColor=none;fontSize=10;" parent="1" vertex="1">
          <mxGeometry x="359" y="269" width="90" height="20" as="geometry" />
        </mxCell>
        <mxCell id="sjQjkHuD0-8LFGBji4sX-33" style="edgeStyle=orthogonalEdgeStyle;rounded=0;orthogonalLoop=1;jettySize=auto;html=1;entryX=0.51;entryY=0.01;entryDx=0;entryDy=0;entryPerimeter=0;fontSize=10;" parent="1" source="sjQjkHuD0-8LFGBji4sX-32" target="sjQjkHuD0-8LFGBji4sX-27" edge="1">
          <mxGeometry relative="1" as="geometry" />
        </mxCell>
        <mxCell id="sjQjkHuD0-8LFGBji4sX-32" value="&lt;font style=&quot;font-size: 10px&quot;&gt;enzymes&lt;/font&gt;" style="text;html=1;align=center;verticalAlign=middle;resizable=0;points=[];autosize=1;strokeColor=none;fillColor=none;fontSize=10;" parent="1" vertex="1">
          <mxGeometry x="554" y="89" width="60" height="20" as="geometry" />
        </mxCell>
        <mxCell id="sjQjkHuD0-8LFGBji4sX-35" value="&lt;b&gt;separator&lt;/b&gt;" style="text;html=1;align=center;verticalAlign=middle;resizable=0;points=[];autosize=1;strokeColor=none;fillColor=none;fontSize=10;" parent="1" vertex="1">
          <mxGeometry x="283" y="161.5" width="60" height="20" as="geometry" />
        </mxCell>
        <mxCell id="sjQjkHuD0-8LFGBji4sX-36" value="&lt;b&gt;separator&lt;/b&gt;" style="text;html=1;align=center;verticalAlign=middle;resizable=0;points=[];autosize=1;strokeColor=none;fillColor=none;fontSize=10;" parent="1" vertex="1">
          <mxGeometry x="460" y="161.5" width="60" height="20" as="geometry" />
        </mxCell>
        <mxCell id="sjQjkHuD0-8LFGBji4sX-39" style="edgeStyle=orthogonalEdgeStyle;rounded=0;orthogonalLoop=1;jettySize=auto;html=1;fontSize=10;" parent="1" source="sjQjkHuD0-8LFGBji4sX-37" edge="1" target="sjQjkHuD0-8LFGBji4sX-40">
          <mxGeometry relative="1" as="geometry">
            <mxPoint x="724" y="206.5" as="targetPoint" />
          </mxGeometry>
        </mxCell>
        <mxCell id="I8c0HOgURLdNbLCz3_IO-3" style="edgeStyle=orthogonalEdgeStyle;rounded=0;orthogonalLoop=1;jettySize=auto;html=1;entryX=0.523;entryY=1.045;entryDx=0;entryDy=0;entryPerimeter=0;fontSize=10;" edge="1" parent="1" source="sjQjkHuD0-8LFGBji4sX-37" target="sjQjkHuD0-8LFGBji4sX-44">
          <mxGeometry relative="1" as="geometry">
            <Array as="points">
              <mxPoint x="669" y="289" />
              <mxPoint x="824" y="289" />
            </Array>
          </mxGeometry>
        </mxCell>
        <mxCell id="sjQjkHuD0-8LFGBji4sX-37" value="" style="shape=mxgraph.pid.separators.gravity_separator,_settling_chamber;html=1;pointerEvents=1;align=center;verticalLabelPosition=bottom;verticalAlign=top;dashed=0;" parent="1" vertex="1">
          <mxGeometry x="654" y="186.5" width="30" height="40" as="geometry" />
        </mxCell>
        <mxCell id="sjQjkHuD0-8LFGBji4sX-45" style="edgeStyle=orthogonalEdgeStyle;rounded=0;orthogonalLoop=1;jettySize=auto;html=1;entryX=0;entryY=0.5;entryDx=0;entryDy=0;entryPerimeter=0;fontSize=10;" parent="1" source="sjQjkHuD0-8LFGBji4sX-40" target="sjQjkHuD0-8LFGBji4sX-44" edge="1">
          <mxGeometry relative="1" as="geometry" />
        </mxCell>
        <mxCell id="sjQjkHuD0-8LFGBji4sX-40" value="" style="verticalLabelPosition=bottom;outlineConnect=0;align=center;dashed=0;html=1;verticalAlign=top;shape=mxgraph.pid2misc.column;columnType=common;fontSize=10;" parent="1" vertex="1">
          <mxGeometry x="729" y="163" width="40" height="87" as="geometry" />
        </mxCell>
        <mxCell id="sjQjkHuD0-8LFGBji4sX-41" value="&lt;b&gt;Adsorption&lt;br&gt;column&lt;/b&gt;" style="text;html=1;align=center;verticalAlign=middle;resizable=0;points=[];autosize=1;strokeColor=none;fillColor=none;fontSize=10;" parent="1" vertex="1">
          <mxGeometry x="714" y="250" width="70" height="30" as="geometry" />
        </mxCell>
        <mxCell id="sjQjkHuD0-8LFGBji4sX-43" style="edgeStyle=orthogonalEdgeStyle;rounded=0;orthogonalLoop=1;jettySize=auto;html=1;fontSize=10;" parent="1" source="sjQjkHuD0-8LFGBji4sX-42" target="sjQjkHuD0-8LFGBji4sX-40" edge="1">
          <mxGeometry relative="1" as="geometry" />
        </mxCell>
        <mxCell id="sjQjkHuD0-8LFGBji4sX-42" value="&lt;font style=&quot;font-size: 10px&quot;&gt;charcoal&lt;/font&gt;" style="text;html=1;align=center;verticalAlign=middle;resizable=0;points=[];autosize=1;strokeColor=none;fillColor=none;fontSize=10;" parent="1" vertex="1">
          <mxGeometry x="724" y="89" width="50" height="20" as="geometry" />
        </mxCell>
        <mxCell id="sjQjkHuD0-8LFGBji4sX-51" style="edgeStyle=orthogonalEdgeStyle;rounded=0;orthogonalLoop=1;jettySize=auto;html=1;fontSize=10;entryX=0.119;entryY=0.499;entryDx=0;entryDy=0;entryPerimeter=0;exitX=1.023;exitY=0.494;exitDx=0;exitDy=0;exitPerimeter=0;" parent="1" source="sjQjkHuD0-8LFGBji4sX-44" target="sjQjkHuD0-8LFGBji4sX-50" edge="1">
          <mxGeometry relative="1" as="geometry">
            <mxPoint x="853" y="206.5" as="sourcePoint" />
          </mxGeometry>
        </mxCell>
        <mxCell id="sjQjkHuD0-8LFGBji4sX-44" value="" style="shape=mxgraph.pid.mixers.in-line_rotary_mixer;html=1;pointerEvents=1;align=center;verticalLabelPosition=bottom;verticalAlign=top;dashed=0;fontSize=10;" parent="1" vertex="1">
          <mxGeometry x="803" y="197" width="40" height="19" as="geometry" />
        </mxCell>
        <mxCell id="sjQjkHuD0-8LFGBji4sX-47" value="&lt;b&gt;solid-liquid&lt;br&gt;separator&lt;br&gt;&lt;/b&gt;" style="text;html=1;align=center;verticalAlign=middle;resizable=0;points=[];autosize=1;strokeColor=none;fillColor=none;fontSize=10;" parent="1" vertex="1">
          <mxGeometry x="632" y="157" width="70" height="30" as="geometry" />
        </mxCell>
        <mxCell id="sjQjkHuD0-8LFGBji4sX-48" value="solid" style="text;html=1;align=center;verticalAlign=middle;resizable=0;points=[];autosize=1;strokeColor=none;fillColor=none;fontSize=10;" parent="1" vertex="1">
          <mxGeometry x="664" y="274" width="40" height="20" as="geometry" />
        </mxCell>
        <mxCell id="sjQjkHuD0-8LFGBji4sX-49" value="liquid" style="text;html=1;align=center;verticalAlign=middle;resizable=0;points=[];autosize=1;strokeColor=none;fillColor=none;fontSize=10;" parent="1" vertex="1">
          <mxGeometry x="679" y="190" width="40" height="20" as="geometry" />
        </mxCell>
        <mxCell id="sjQjkHuD0-8LFGBji4sX-54" style="edgeStyle=orthogonalEdgeStyle;rounded=0;orthogonalLoop=1;jettySize=auto;html=1;fontSize=10;exitX=0.784;exitY=0.242;exitDx=0;exitDy=0;exitPerimeter=0;" parent="1" source="sjQjkHuD0-8LFGBji4sX-50" edge="1">
          <mxGeometry relative="1" as="geometry">
            <mxPoint x="949" y="129" as="targetPoint" />
            <Array as="points">
              <mxPoint x="934" y="179" />
              <mxPoint x="949" y="179" />
            </Array>
          </mxGeometry>
        </mxCell>
        <mxCell id="I8c0HOgURLdNbLCz3_IO-2" style="edgeStyle=orthogonalEdgeStyle;rounded=0;orthogonalLoop=1;jettySize=auto;html=1;entryX=0.5;entryY=0;entryDx=0;entryDy=0;entryPerimeter=0;fontSize=10;exitX=0.9;exitY=0.494;exitDx=0;exitDy=0;exitPerimeter=0;" edge="1" parent="1" source="sjQjkHuD0-8LFGBji4sX-50" target="I8c0HOgURLdNbLCz3_IO-1">
          <mxGeometry relative="1" as="geometry" />
        </mxCell>
        <mxCell id="sjQjkHuD0-8LFGBji4sX-50" value="" style="shape=mxgraph.pid.vessels.jacketed_mixing_vessel;html=1;pointerEvents=1;align=center;verticalLabelPosition=bottom;verticalAlign=top;dashed=0;" parent="1" vertex="1">
          <mxGeometry x="879" y="156.5" width="70" height="100" as="geometry" />
        </mxCell>
        <mxCell id="sjQjkHuD0-8LFGBji4sX-53" style="edgeStyle=orthogonalEdgeStyle;rounded=0;orthogonalLoop=1;jettySize=auto;html=1;entryX=0.164;entryY=0.247;entryDx=0;entryDy=0;entryPerimeter=0;fontSize=10;" parent="1" edge="1">
          <mxGeometry relative="1" as="geometry">
            <mxPoint x="894" y="105" as="sourcePoint" />
            <mxPoint x="895.48" y="177.20000000000005" as="targetPoint" />
            <Array as="points">
              <mxPoint x="895" y="105" />
              <mxPoint x="895" y="129" />
            </Array>
          </mxGeometry>
        </mxCell>
        <mxCell id="sjQjkHuD0-8LFGBji4sX-52" value="&lt;i&gt;C. acetobutylicium&lt;/i&gt;" style="text;html=1;align=center;verticalAlign=middle;resizable=0;points=[];autosize=1;strokeColor=none;fillColor=none;fontSize=10;" parent="1" vertex="1">
          <mxGeometry x="809" y="88" width="100" height="20" as="geometry" />
        </mxCell>
        <mxCell id="sjQjkHuD0-8LFGBji4sX-55" value="&lt;i&gt;`CO_2, N_2`&lt;/i&gt;" style="text;html=1;align=center;verticalAlign=middle;resizable=0;points=[];autosize=1;strokeColor=none;fillColor=none;fontSize=10;" parent="1" vertex="1">
          <mxGeometry x="920" y="109" width="70" height="20" as="geometry" />
        </mxCell>
        <mxCell id="I8c0HOgURLdNbLCz3_IO-4" style="edgeStyle=orthogonalEdgeStyle;rounded=0;orthogonalLoop=1;jettySize=auto;html=1;fontSize=10;" edge="1" parent="1" source="I8c0HOgURLdNbLCz3_IO-1">
          <mxGeometry relative="1" as="geometry">
            <mxPoint x="986" y="317.8749999999999" as="targetPoint" />
          </mxGeometry>
        </mxCell>
        <mxCell id="I8c0HOgURLdNbLCz3_IO-5" style="edgeStyle=orthogonalEdgeStyle;rounded=0;orthogonalLoop=1;jettySize=auto;html=1;fontSize=10;" edge="1" parent="1" source="I8c0HOgURLdNbLCz3_IO-1" target="I8c0HOgURLdNbLCz3_IO-9">
          <mxGeometry relative="1" as="geometry">
            <mxPoint x="1044.22" y="399" as="targetPoint" />
            <Array as="points">
              <mxPoint x="1044" y="459" />
            </Array>
          </mxGeometry>
        </mxCell>
        <mxCell id="I8c0HOgURLdNbLCz3_IO-1" value="" style="verticalLabelPosition=bottom;aspect=fixed;html=1;verticalAlign=top;strokeColor=#000000;fillColor=#000000;align=center;outlineConnect=0;shape=mxgraph.fluid_power.x11980;points=[[0.5,0,0],[0.5,1,0]];fontSize=10;" vertex="1" parent="1">
          <mxGeometry x="1028" y="290" width="32.44" height="55.75" as="geometry" />
        </mxCell>
        <mxCell id="I8c0HOgURLdNbLCz3_IO-6" value="&lt;b&gt;Fermentation&lt;br&gt;Batch reactor&lt;/b&gt;" style="text;html=1;align=center;verticalAlign=middle;resizable=0;points=[];autosize=1;strokeColor=none;fillColor=none;fontSize=10;" vertex="1" parent="1">
          <mxGeometry x="874" y="256.5" width="80" height="30" as="geometry" />
        </mxCell>
        <mxCell id="I8c0HOgURLdNbLCz3_IO-7" value="&lt;b&gt;filter&lt;br&gt;&lt;/b&gt;" style="text;html=1;align=center;verticalAlign=middle;resizable=0;points=[];autosize=1;strokeColor=none;fillColor=none;fontSize=10;" vertex="1" parent="1">
          <mxGeometry x="1060.44" y="307.87" width="40" height="20" as="geometry" />
        </mxCell>
        <mxCell id="I8c0HOgURLdNbLCz3_IO-8" value="&lt;font style=&quot;font-size: 10px&quot;&gt;biomass&lt;/font&gt;" style="text;html=1;align=center;verticalAlign=middle;resizable=0;points=[];autosize=1;strokeColor=none;fillColor=none;fontSize=10;" vertex="1" parent="1">
          <mxGeometry x="938" y="305.87" width="50" height="20" as="geometry" />
        </mxCell>
        <mxCell id="I8c0HOgURLdNbLCz3_IO-11" style="edgeStyle=orthogonalEdgeStyle;rounded=0;orthogonalLoop=1;jettySize=auto;html=1;fontSize=10;" edge="1" parent="1" source="I8c0HOgURLdNbLCz3_IO-9">
          <mxGeometry relative="1" as="geometry">
            <mxPoint x="867" y="377" as="targetPoint" />
            <Array as="points">
              <mxPoint x="958" y="377" />
            </Array>
          </mxGeometry>
        </mxCell>
        <mxCell id="I8c0HOgURLdNbLCz3_IO-16" style="edgeStyle=orthogonalEdgeStyle;rounded=0;orthogonalLoop=1;jettySize=auto;html=1;fontSize=10;" edge="1" parent="1" target="I8c0HOgURLdNbLCz3_IO-13">
          <mxGeometry relative="1" as="geometry">
            <mxPoint x="958" y="478" as="sourcePoint" />
            <Array as="points">
              <mxPoint x="958" y="545" />
            </Array>
          </mxGeometry>
        </mxCell>
        <mxCell id="I8c0HOgURLdNbLCz3_IO-9" value="" style="verticalLabelPosition=bottom;outlineConnect=0;align=center;dashed=0;html=1;verticalAlign=top;shape=mxgraph.pid2misc.column;columnType=common;fontSize=10;" vertex="1" parent="1">
          <mxGeometry x="938" y="407" width="40" height="87" as="geometry" />
        </mxCell>
        <mxCell id="I8c0HOgURLdNbLCz3_IO-17" style="edgeStyle=orthogonalEdgeStyle;rounded=0;orthogonalLoop=1;jettySize=auto;html=1;fontSize=10;" edge="1" parent="1" source="I8c0HOgURLdNbLCz3_IO-13">
          <mxGeometry relative="1" as="geometry">
            <mxPoint x="767" y="544.5" as="targetPoint" />
          </mxGeometry>
        </mxCell>
        <mxCell id="I8c0HOgURLdNbLCz3_IO-18" style="edgeStyle=orthogonalEdgeStyle;rounded=0;orthogonalLoop=1;jettySize=auto;html=1;fontSize=10;" edge="1" parent="1" source="I8c0HOgURLdNbLCz3_IO-13" target="I8c0HOgURLdNbLCz3_IO-15">
          <mxGeometry relative="1" as="geometry">
            <Array as="points">
              <mxPoint x="863" y="661" />
            </Array>
          </mxGeometry>
        </mxCell>
        <mxCell id="I8c0HOgURLdNbLCz3_IO-13" value="" style="verticalLabelPosition=bottom;outlineConnect=0;align=center;dashed=0;html=1;verticalAlign=top;shape=mxgraph.pid2misc.column;columnType=common;fontSize=10;rotation=-90;" vertex="1" parent="1">
          <mxGeometry x="843" y="501" width="40" height="87" as="geometry" />
        </mxCell>
        <mxCell id="I8c0HOgURLdNbLCz3_IO-19" style="edgeStyle=orthogonalEdgeStyle;rounded=0;orthogonalLoop=1;jettySize=auto;html=1;fontSize=10;" edge="1" parent="1" source="I8c0HOgURLdNbLCz3_IO-15">
          <mxGeometry relative="1" as="geometry">
            <mxPoint x="647" y="587" as="targetPoint" />
            <Array as="points">
              <mxPoint x="749" y="587" />
            </Array>
          </mxGeometry>
        </mxCell>
        <mxCell id="I8c0HOgURLdNbLCz3_IO-20" style="edgeStyle=orthogonalEdgeStyle;rounded=0;orthogonalLoop=1;jettySize=auto;html=1;fontSize=10;" edge="1" parent="1" source="I8c0HOgURLdNbLCz3_IO-15">
          <mxGeometry relative="1" as="geometry">
            <mxPoint x="667" y="737" as="targetPoint" />
            <Array as="points">
              <mxPoint x="749" y="737" />
            </Array>
          </mxGeometry>
        </mxCell>
        <mxCell id="I8c0HOgURLdNbLCz3_IO-15" value="" style="verticalLabelPosition=bottom;outlineConnect=0;align=center;dashed=0;html=1;verticalAlign=top;shape=mxgraph.pid2misc.column;columnType=common;fontSize=10;" vertex="1" parent="1">
          <mxGeometry x="729" y="617" width="40" height="87" as="geometry" />
        </mxCell>
        <mxCell id="I8c0HOgURLdNbLCz3_IO-21" value="&lt;b&gt;Distillation&lt;br&gt;column - 1&lt;/b&gt;" style="text;html=1;align=center;verticalAlign=middle;resizable=0;points=[];autosize=1;strokeColor=none;fillColor=none;fontSize=10;" vertex="1" parent="1">
          <mxGeometry x="978" y="471" width="70" height="30" as="geometry" />
        </mxCell>
        <mxCell id="I8c0HOgURLdNbLCz3_IO-22" value="&lt;b&gt;Distillation&lt;br&gt;column - 2&lt;/b&gt;" style="text;html=1;align=center;verticalAlign=middle;resizable=0;points=[];autosize=1;strokeColor=none;fillColor=none;fontSize=10;" vertex="1" parent="1">
          <mxGeometry x="774" y="677" width="70" height="30" as="geometry" />
        </mxCell>
        <mxCell id="I8c0HOgURLdNbLCz3_IO-23" value="&lt;b&gt;Decanter&lt;/b&gt;" style="text;html=1;align=center;verticalAlign=middle;resizable=0;points=[];autosize=1;strokeColor=none;fillColor=none;fontSize=10;" vertex="1" parent="1">
          <mxGeometry x="907" y="557" width="60" height="20" as="geometry" />
        </mxCell>
        <mxCell id="I8c0HOgURLdNbLCz3_IO-24" value="&lt;font style=&quot;font-size: 10px&quot;&gt;Acetone + Ethanol&lt;/font&gt;" style="text;html=1;align=center;verticalAlign=middle;resizable=0;points=[];autosize=1;strokeColor=none;fillColor=none;fontSize=10;" vertex="1" parent="1">
          <mxGeometry x="769" y="367" width="100" height="20" as="geometry" />
        </mxCell>
        <mxCell id="I8c0HOgURLdNbLCz3_IO-25" value="&lt;font style=&quot;font-size: 10px&quot;&gt;Water&lt;/font&gt;" style="text;html=1;align=center;verticalAlign=middle;resizable=0;points=[];autosize=1;strokeColor=none;fillColor=none;fontSize=10;" vertex="1" parent="1">
          <mxGeometry x="724" y="534.5" width="40" height="20" as="geometry" />
        </mxCell>
        <mxCell id="I8c0HOgURLdNbLCz3_IO-26" value="&lt;font style=&quot;font-size: 10px&quot;&gt;Water&lt;/font&gt;" style="text;html=1;align=center;verticalAlign=middle;resizable=0;points=[];autosize=1;strokeColor=none;fillColor=none;fontSize=10;" vertex="1" parent="1">
          <mxGeometry x="607" y="577" width="40" height="20" as="geometry" />
        </mxCell>
        <mxCell id="I8c0HOgURLdNbLCz3_IO-27" value="&lt;b&gt;Butanol&lt;/b&gt;" style="text;html=1;align=center;verticalAlign=middle;resizable=0;points=[];autosize=1;strokeColor=none;fillColor=none;fontSize=10;" vertex="1" parent="1">
          <mxGeometry x="609" y="727" width="50" height="20" as="geometry" />
        </mxCell>
        <mxCell id="I8c0HOgURLdNbLCz3_IO-28" value="&lt;font style=&quot;font-size: 34px&quot;&gt;Process flow diagram for&lt;br&gt;production of Butanol&lt;br&gt;from palm oil cake&lt;/font&gt;" style="text;html=1;align=center;verticalAlign=middle;resizable=0;points=[];autosize=1;strokeColor=none;fillColor=none;fontSize=10;" vertex="1" parent="1">
          <mxGeometry x="159" y="471" width="390" height="70" as="geometry" />
        </mxCell>
      </root>
    </mxGraphModel>
  </diagram>
</mxfile>
